<svg xml:space="preserve" style="max-height: 500px" viewBox="-139.96 193.936 612.88 164.304" y="0px" x="0px" xmlns:xlink="http://www.w3.org/1999/xlink" xmlns="http://www.w3.org/2000/svg" id="layer" version="1.1" width="612.88" height="164.304">
<style type="text/css">
	.st0{fill:#008C44;}
	.st1{fill:#F47920;}
	.st2{fill:#6D6E71;}
</style>
<polygon points="444.2,211.9 468.4,259.9 417.6,307.9" class="st0"/>
<polygon points="427.3,211.9 451.4,259.9 400.7,307.9" class="st1"/>
<path d="M-10.5,308.9l-77-62.9l-17.4,62.6H-124l26.7-96.4l77,62.9l17.5-63h19.1L-10.5,308.9z M386.5,289.5h-95.9&#10;&#9;l16.2-58.6h95.9l2.5-9.1c0.8-2.8,0.5-5.1-0.8-6.9c-1.3-1.8-3.4-2.8-6.1-2.8h-95.9c-2.7,0-5.2,1-7.5,2.8c-2.4,1.9-3.9,4.2-4.6,6.9&#10;&#9;l-21.3,77c-0.7,2.7-0.5,5,0.8,6.8c1.3,1.8,3.3,2.8,6,2.8h95.9c2.7,0,5.2-0.9,7.6-2.8c2.4-1.8,3.9-4.1,4.7-6.8L386.5,289.5z&#10;&#9; M161.2,212l-5.2,18.7h48.5l-21.4,77.5l0,0h19.2v0l21.5-77.5h47.2h0.1l5.1-18.7H161.2z M136.1,212H40.2c-0.5,0-1.1,0-1.6,0.1&#10;&#9;c-2.1,0.3-4.1,1.2-6,2.7c-2.3,1.9-3.9,4.2-4.6,6.9l-21.3,77c-0.8,2.7-0.5,5,0.8,6.8c1.3,1.8,3.3,2.8,6,2.8h9.6h77h0h9.4&#10;&#9;c2.7,0,5.2-0.9,7.6-2.8c2.4-1.8,3.9-4.1,4.7-6.8l2.6-9.3h-19h0H28.4l5.5-19.8h76.9l5.2-18.8H39.1l5.5-20.1h76.9h0h19l2.5-9.1&#10;&#9;c0.8-2.8,0.5-5.1-0.8-6.9C141,213,138.9,212,136.1,212" class="st2"/>
<path d="M-131.6,336.9l4.9-17.4l8.4,12.5l3.2-11.3h2.5l-4.9,17.3l-8.4-12.4l-3.2,11.4H-131.6z M-98,336.9h2.7l-3-17.4&#10;&#9;l-12.9,17.4h2.7l2.9-4h7L-98,336.9z M-103.9,330.6l4.1-5.5l0.9,5.5H-103.9z M-78.1,322.9l0.7-2.3h-10l-0.7,2.3h3.8l-3.9,14h2.5&#10;&#9;l3.9-14H-78.1z M-71.4,320.6l-4.6,16.3h2.5l4.6-16.3H-71.4z M-64.2,328.7c-0.7,2.6-0.4,4.7,1,6.3c1.3,1.5,2.9,2.2,5.1,2.2&#10;&#9;c2.4,0,4.6-0.8,6.8-2.5c2.1-1.6,3.5-3.6,4.2-6c0.7-2.3,0.4-4.3-0.8-6c-1.2-1.7-2.9-2.5-5.3-2.5c-2.4,0-4.6,0.8-6.8,2.5&#10;&#9;C-62.1,324.4-63.5,326.3-64.2,328.7 M-61.7,328.7c0.5-1.7,1.5-3.2,3-4.3c1.5-1.2,3.1-1.8,4.8-1.8c1.7,0,3,0.6,3.8,1.8&#10;&#9;c0.8,1.2,1,2.6,0.5,4.4c-0.5,1.7-1.5,3.2-3,4.4c-1.5,1.2-3.1,1.8-4.8,1.8c-1.6,0-2.8-0.6-3.7-1.7C-62,332-62.2,330.5-61.7,328.7&#10;&#9; M-39.9,336.9l3.2-11.4l8.4,12.4l4.8-17.3h-2.4l-3.2,11.3l-8.4-12.5l-4.9,17.4H-39.9z M-8.8,336.9h2.7L-9,319.5L-22,336.9h2.6l2.9-4&#10;&#9;h7L-8.8,336.9z M-14.7,330.6l4.1-5.5l0.9,5.5H-14.7z M4.4,320.6l-4.6,16.3h7.3l0.7-2.3H3l3.9-14H4.4z M37.5,320.6h-9l-4.6,16.3h9&#10;&#9;l0.6-2.3H27l1.5-5.5h6.4l0.6-2.3h-6.4l1.1-3.9h6.5L37.5,320.6z M44.6,320.6l-4.6,16.3h7.3l0.7-2.3h-4.8l3.9-14H44.6z M67.1,320.6h-9&#10;&#9;l-4.6,16.3h9l0.6-2.3h-6.5l1.5-5.5h6.4l0.6-2.3h-6.4l1.1-3.9h6.5L67.1,320.6z M86.1,321.4c-1.1-0.8-2.4-1.2-3.9-1.2&#10;&#9;c-2.7,0-5.1,1-7.4,3c-1.8,1.6-3,3.5-3.6,5.5c-0.6,2.3-0.4,4.3,0.8,5.9c1.2,1.6,3,2.5,5.3,2.5c1.5,0,3.1-0.4,4.8-1.2l0.8-3&#10;&#9;c-0.5,0.3-1,0.6-1.4,0.9c-0.4,0.2-0.8,0.4-1.2,0.6c-0.7,0.3-1.5,0.4-2.3,0.4c-1.7,0-2.9-0.6-3.8-1.8c-0.8-1.2-1-2.6-0.5-4.3&#10;&#9;c0.5-1.7,1.5-3.2,2.9-4.4c1.5-1.2,3.1-1.8,4.8-1.8c1.5,0,2.8,0.6,3.9,1.8L86.1,321.4 M100.9,322.9l0.7-2.3h-10l-0.7,2.3h3.8l-3.9,14&#10;&#9;h2.5l3.9-14H100.9z M110.6,329.9c1.2-0.2,2.2-0.8,3.1-1.6c0.9-0.8,1.5-1.8,1.8-3c0.4-1.5,0.2-2.7-0.6-3.6c-0.7-0.8-2.2-1.2-4.3-1.2&#10;&#9;h-2.9l-4.6,16.3h2.5l1.9-6.7h0.5l2.8,6.7h3L110.6,329.9 M109.5,322.9h0.9c2.3,0,3.2,0.8,2.7,2.5c-0.5,1.8-1.9,2.7-4.3,2.7h-0.8&#10;&#9;L109.5,322.9z M121.2,328.7c-0.7,2.6-0.4,4.7,1,6.3c1.3,1.5,3,2.2,5.1,2.2c2.4,0,4.7-0.8,6.8-2.5c2.1-1.6,3.5-3.6,4.2-6&#10;&#9;c0.6-2.3,0.4-4.3-0.8-6c-1.2-1.7-3-2.5-5.3-2.5c-2.4,0-4.6,0.8-6.8,2.5C123.2,324.4,121.8,326.3,121.2,328.7 M123.7,328.7&#10;&#9;c0.5-1.7,1.5-3.2,3-4.3c1.5-1.2,3.1-1.8,4.8-1.8c1.7,0,3,0.6,3.8,1.8c0.8,1.2,1,2.6,0.5,4.4c-0.5,1.7-1.5,3.2-3,4.4&#10;&#9;c-1.5,1.2-3.1,1.8-4.8,1.8c-1.6,0-2.8-0.6-3.7-1.7C123.3,332,123.2,330.5,123.7,328.7 M145.4,336.9l3.2-11.4l8.4,12.4l4.8-17.3h-2.5&#10;&#9;l-3.2,11.3l-8.4-12.5l-4.9,17.4H145.4z M169.7,320.6l-4.6,16.3h2.5l4.6-16.3H169.7z M191.8,321.4c-1.1-0.8-2.5-1.2-3.9-1.2&#10;&#9;c-2.7,0-5.1,1-7.4,3c-1.8,1.6-3,3.5-3.6,5.5c-0.6,2.3-0.4,4.3,0.8,5.9c1.2,1.6,3,2.5,5.3,2.5c1.6,0,3.1-0.4,4.8-1.2l0.8-3&#10;&#9;c-0.5,0.3-1,0.6-1.4,0.9c-0.4,0.2-0.8,0.4-1.2,0.6c-0.7,0.3-1.5,0.4-2.3,0.4c-1.7,0-2.9-0.6-3.8-1.8c-0.8-1.2-1-2.6-0.5-4.3&#10;&#9;c0.5-1.7,1.5-3.2,3-4.4c1.5-1.2,3.1-1.8,4.7-1.8c1.5,0,2.8,0.6,3.9,1.8L191.8,321.4 M217.2,322.9l0.7-2.3h-9.9l-0.6,2.3h3.7l-3.9,14&#10;&#9;h2.5l3.9-14H217.2z M220.4,328.7c-0.7,2.6-0.4,4.7,1,6.3c1.3,1.5,3,2.2,5.1,2.2c2.4,0,4.6-0.8,6.8-2.5c2.1-1.6,3.5-3.6,4.2-6&#10;&#9;c0.6-2.3,0.4-4.3-0.8-6c-1.2-1.7-2.9-2.5-5.3-2.5c-2.4,0-4.6,0.8-6.7,2.5C222.4,324.4,221,326.3,220.4,328.7 M222.9,328.7&#10;&#9;c0.5-1.7,1.5-3.2,3-4.3c1.5-1.2,3.1-1.8,4.8-1.8c1.7,0,3,0.6,3.8,1.8c0.8,1.2,1,2.6,0.5,4.4c-0.5,1.7-1.5,3.2-3,4.4&#10;&#9;c-1.5,1.2-3.1,1.8-4.8,1.8c-1.6,0-2.8-0.6-3.7-1.7C222.5,332,222.4,330.5,222.9,328.7 M246.7,320.6l-4.6,16.3h7.3l0.6-2.3h-4.8&#10;&#9;l3.9-14H246.7z M260.2,320.6l-4.6,16.3h7.3l0.6-2.3h-4.8l3.9-14H260.2z M296.1,321.4c-1.1-0.8-2.5-1.2-3.9-1.2c-2.7,0-5.2,1-7.4,3&#10;&#9;c-1.8,1.6-3,3.5-3.6,5.5c-0.6,2.3-0.4,4.3,0.8,5.9c1.2,1.6,2.9,2.5,5.3,2.5c1.6,0,3.2-0.4,4.8-1.2l0.8-3c-0.5,0.3-1,0.6-1.4,0.9&#10;&#9;c-0.4,0.2-0.8,0.4-1.2,0.6c-0.7,0.3-1.5,0.4-2.3,0.4c-1.7,0-2.9-0.6-3.8-1.8c-0.8-1.2-1-2.6-0.5-4.3c0.5-1.7,1.5-3.2,3-4.4&#10;&#9;c1.5-1.2,3.1-1.8,4.7-1.8c1.5,0,2.8,0.6,3.9,1.8L296.1,321.4 M300.2,328.7c-0.7,2.6-0.4,4.7,1,6.3c1.3,1.5,3,2.2,5.1,2.2&#10;&#9;c2.4,0,4.7-0.8,6.8-2.5c2.1-1.6,3.5-3.6,4.2-6c0.7-2.3,0.4-4.3-0.8-6c-1.2-1.7-3-2.5-5.3-2.5c-2.4,0-4.6,0.8-6.7,2.5&#10;&#9;C302.2,324.4,300.8,326.3,300.2,328.7 M302.7,328.7c0.5-1.7,1.5-3.2,3-4.3c1.5-1.2,3.1-1.8,4.8-1.8c1.7,0,3,0.6,3.8,1.8&#10;&#9;c0.8,1.2,1,2.6,0.5,4.4c-0.5,1.7-1.5,3.2-3,4.4c-1.5,1.2-3.1,1.8-4.8,1.8c-1.6,0-2.8-0.6-3.7-1.7C302.3,332,302.1,330.5,302.7,328.7&#10;&#9; M326.5,320.6l-4.6,16.3h7.3l0.6-2.3H325l3.9-14H326.5z M340,320.6l-4.6,16.3h7.3l0.6-2.3h-4.8l3.9-14H340z M362.5,320.6h-9&#10;&#9;l-4.6,16.3h9l0.6-2.3H352l1.5-5.5h6.4l0.6-2.3h-6.3l1.1-3.9h6.5L362.5,320.6z M381.5,321.4c-1.1-0.8-2.4-1.2-3.9-1.2&#10;&#9;c-2.7,0-5.1,1-7.4,3c-1.8,1.6-3,3.5-3.6,5.5c-0.7,2.3-0.4,4.3,0.8,5.9c1.2,1.6,3,2.5,5.3,2.5c1.5,0,3.2-0.4,4.8-1.2l0.8-3&#10;&#9;c-0.5,0.3-1,0.6-1.4,0.9c-0.4,0.2-0.8,0.4-1.2,0.6c-0.7,0.3-1.5,0.4-2.3,0.4c-1.7,0-2.9-0.6-3.8-1.8c-0.8-1.2-1-2.6-0.5-4.3&#10;&#9;c0.5-1.7,1.5-3.2,3-4.4c1.5-1.2,3.1-1.8,4.7-1.8c1.5,0,2.8,0.6,3.9,1.8L381.5,321.4 M396.3,322.9l0.6-2.3H387l-0.7,2.3h3.8l-3.9,14&#10;&#9;h2.5l3.9-14H396.3z M403.1,320.6l-4.6,16.3h2.5l4.6-16.3H403.1z M410.3,328.7c-0.7,2.6-0.4,4.7,1,6.3c1.3,1.5,3,2.2,5.1,2.2&#10;&#9;c2.4,0,4.6-0.8,6.8-2.5c2.1-1.6,3.5-3.6,4.2-6c0.7-2.3,0.4-4.3-0.8-6c-1.2-1.7-3-2.5-5.3-2.5c-2.4,0-4.6,0.8-6.7,2.5&#10;&#9;C412.3,324.4,410.9,326.3,410.3,328.7 M412.8,328.7c0.5-1.7,1.5-3.2,3-4.3c1.5-1.2,3.1-1.8,4.8-1.8c1.7,0,3,0.6,3.8,1.8&#10;&#9;c0.8,1.2,1,2.6,0.5,4.4c-0.5,1.7-1.5,3.2-3,4.4c-1.5,1.2-3.1,1.8-4.8,1.8c-1.6,0-2.8-0.6-3.7-1.7C412.4,332,412.2,330.5,412.8,328.7&#10;&#9; M434.5,336.9l3.2-11.4l8.4,12.4l4.9-17.3h-2.5l-3.2,11.3l-8.4-12.5l-4.9,17.4H434.5z" class="st2"/>
</svg>