<?xml version="1.0" encoding="UTF-8"?>
<svg version="1.1" xmlns="http://www.w3.org/2000/svg" width="512" height="512">
<path d="M0 0 C1.43622963 -0.01485695 1.43622963 -0.01485695 2.901474 -0.03001404 C4.46709579 -0.02326157 4.46709579 -0.02326157 6.06434631 -0.01637268 C7.72103584 -0.02666756 7.72103584 -0.02666756 9.41119385 -0.03717041 C13.06662303 -0.05549034 16.72162516 -0.05159334 20.37709045 -0.0459137 C22.91530498 -0.050473 25.45351826 -0.05577781 27.99172974 -0.0617981 C33.31384371 -0.07073945 38.63580167 -0.06852773 43.957901 -0.05836487 C50.10534851 -0.04688519 56.25235969 -0.06095668 62.3997497 -0.08776134 C68.31898213 -0.11260257 74.2380791 -0.11509421 80.1573658 -0.10864449 C82.673592 -0.10849095 85.18982648 -0.11456201 87.70602226 -0.12693596 C91.22293031 -0.14179351 94.73887491 -0.13120614 98.25575256 -0.11402893 C99.81833801 -0.12853088 99.81833801 -0.12853088 101.41249084 -0.14332581 C105.7960386 -0.09843553 108.47272452 -0.05549551 112.30386353 2.20223999 C114.8681751 5.11972571 116.12386414 8.30519869 117.4747467 11.88768005 C124.92424487 30.08446978 137.57852537 41.14680249 155.3966217 48.73924255 C158.82494017 50.73751658 159.86826014 51.64280822 161.2247467 55.38768005 C161.41395422 59.19469289 161.08841228 62.91043234 160.7247467 66.70018005 C160.57743103 68.35340271 160.57743103 68.35340271 160.42713928 70.0400238 C159.27513603 81.69109777 157.01917791 93.028931 154.2247467 104.38768005 C154.03541565 105.16546814 153.84608459 105.94325623 153.65101624 106.74461365 C149.46747758 123.45264449 142.39056341 139.35208447 133.65834045 154.16111755 C132.02488687 157.83750083 132.11670591 160.41048365 132.2247467 164.38768005 C133.23786926 164.37720642 134.25099182 164.36673279 135.29481506 164.35594177 C139.09116515 164.31945565 142.88750006 164.29667656 146.68397522 164.27781677 C148.32006954 164.26782388 149.95614629 164.25422498 151.59217834 164.23680115 C175.71813248 163.98648609 175.71813248 163.98648609 185.2247467 172.38768005 C191.70911709 180.41594816 191.48683921 188.00497025 191.5997467 198.01268005 C191.63712952 199.24631287 191.67451233 200.47994568 191.71302795 201.7509613 C191.79722024 210.5537324 190.59181931 217.64666851 184.46839905 224.29441833 C178.40115427 230.03221996 171.90639595 231.815189 163.7872467 232.07518005 C163.05570374 232.10934021 162.32416077 232.14350037 161.57044983 232.17869568 C159.78905109 232.26019758 158.00692921 232.32563528 156.2247467 232.38768005 C156.74423889 233.23588318 157.26373108 234.0840863 157.79896545 234.95799255 C167.05236172 250.39068512 171.53748105 265.35107701 171.49940491 283.40892029 C171.5070713 285.30582863 171.5070713 285.30582863 171.51489258 287.24105835 C171.52817222 290.67860449 171.52887459 294.11603999 171.52632928 297.55360675 C171.52525379 300.42935942 171.5301567 303.30509022 171.5349347 306.18083817 C171.54598777 312.96033301 171.54648855 319.73977239 171.54042053 326.51927185 C171.53435926 333.51090116 171.54675561 340.50233033 171.5679906 347.49392551 C171.58558579 353.50857462 171.59161198 359.52315984 171.58835286 365.53783375 C171.58653934 369.12550227 171.58918454 372.71302738 171.6030674 376.30067253 C171.61793663 380.29126309 171.60869408 384.28159581 171.59706116 388.27220154 C171.6047049 389.46130127 171.61234863 390.650401 171.620224 391.87553406 C171.61320969 392.95904648 171.60619537 394.0425589 171.59896851 395.15890503 C171.59922012 396.57327174 171.59922012 396.57327174 171.59947681 398.01621151 C171.15231594 400.84605605 170.50035574 401.69790491 168.2247467 403.38768005 C165.0468713 404.44697186 162.79885727 404.50226945 159.46302795 404.4853363 C158.34476624 404.48211365 157.22650452 404.47889099 156.07435608 404.47557068 C154.32348694 404.46300232 154.32348694 404.46300232 152.5372467 404.45018005 C151.35839905 404.44566833 150.17955139 404.44115662 148.96498108 404.43650818 C146.05151882 404.42471278 143.13815807 404.40825276 140.2247467 404.38768005 C140.24569397 405.1782782 140.26664124 405.96887634 140.28822327 406.78343201 C140.37220949 410.42221469 140.42366758 414.06079249 140.4747467 417.70018005 C140.50826233 418.94348083 140.54177795 420.18678162 140.5763092 421.46775818 C140.70650903 433.86929137 137.86029988 443.30882333 129.2247467 452.38768005 C119.5649894 461.73448625 107.30984661 463.0563668 94.45228577 462.90916443 C92.22689419 462.88770077 90.00472895 462.90907832 87.7794342 462.93455505 C76.04198739 462.95818985 65.46444834 461.25257182 56.25990295 453.43455505 C42.04838082 439.14120073 44.2247467 425.30508145 44.2247467 404.38768005 C-21.1152533 404.38768005 -86.4552533 404.38768005 -153.7752533 404.38768005 C-153.7752533 413.62768005 -153.7752533 422.86768005 -153.7752533 432.38768005 C-158.27412308 444.75957196 -163.00433313 453.30525009 -174.7752533 459.38768005 C-182.74227138 462.82410199 -190.87314532 462.88290368 -199.39683533 462.83372498 C-201.63979685 462.8252197 -203.88019832 462.85405299 -206.12290955 462.88572693 C-217.90371908 462.94395155 -228.44633771 461.32834702 -237.74009705 453.43455505 C-245.81094708 445.31723179 -249.88801974 436.81898439 -250.06822205 425.3837738 C-250.0484855 422.86407459 -250.01300994 420.34445534 -249.9627533 417.82518005 C-249.94921814 416.53031677 -249.93568298 415.23545349 -249.92173767 413.90135193 C-249.886627 410.72968792 -249.83744677 407.55890915 -249.7752533 404.38768005 C-250.50639343 404.4033905 -251.23753357 404.41910095 -251.99082947 404.43528748 C-255.31472489 404.49778357 -258.6384965 404.53671758 -261.9627533 404.57518005 C-263.68848572 404.61288513 -263.68848572 404.61288513 -265.44908142 404.65135193 C-266.56089783 404.6610199 -267.67271423 404.67068787 -268.81822205 404.6806488 C-269.83940125 404.69635925 -270.86058044 404.7120697 -271.91270447 404.72825623 C-275.28821717 404.32664938 -277.08864246 403.45293752 -279.7752533 401.38768005 C-282.32029759 397.73000726 -282.03487205 393.876798 -281.97935486 389.59495544 C-281.97618633 388.42118379 -281.97618633 388.42118379 -281.9729538 387.22369957 C-281.96354508 384.62326709 -281.93977863 382.02317288 -281.9158783 379.4228363 C-281.9060028 377.58153722 -281.89700631 375.74023324 -281.88883972 373.89892578 C-281.87002284 370.02445542 -281.84522979 366.15008621 -281.81602478 362.27568054 C-281.77423129 356.58890893 -281.75400462 350.90221122 -281.73814392 345.21531677 C-281.71293286 336.88151745 -281.66259181 328.5481833 -281.59131622 320.21465111 C-281.55142544 315.50497412 -281.51934416 310.79550562 -281.5042572 306.0856781 C-281.4889901 301.38917896 -281.45448601 296.69316864 -281.40694427 291.99688911 C-281.39236584 290.24898074 -281.38422623 288.50100355 -281.38336945 286.75303459 C-281.36911062 272.33274013 -279.47539349 258.98398357 -273.2752533 245.76268005 C-272.99294861 245.12201599 -272.71064392 244.48135193 -272.41978455 243.8212738 C-270.55628679 239.69796881 -268.36245021 236.0755704 -265.7752533 232.38768005 C-266.81423767 232.37350037 -267.85322205 232.35932068 -268.9236908 232.3447113 C-278.372444 232.07928414 -286.25299693 231.33298426 -293.60728455 224.74705505 C-301.0228055 216.73612731 -301.2487444 208.98325671 -301.1502533 198.45018005 C-301.16185486 197.21332458 -301.17345642 195.97646912 -301.18540955 194.70213318 C-301.15731718 185.94199579 -300.5029986 178.58231576 -294.3611908 171.77049255 C-287.03329447 165.38114453 -279.63366217 164.22783701 -270.19322205 164.2900238 C-268.97195366 164.29214622 -268.97195366 164.29214622 -267.72601318 164.29431152 C-265.13822174 164.29988689 -262.55051838 164.31243481 -259.9627533 164.32518005 C-258.20298892 164.33019824 -256.44322319 164.33476059 -254.68345642 164.33885193 C-250.38068836 164.34984825 -246.07798574 164.36709585 -241.7752533 164.38768005 C-241.64997253 163.60457458 -241.52469177 162.82146912 -241.39561462 162.01463318 C-239.19930121 148.36462001 -236.97039044 134.71116105 -234.3377533 121.13768005 C-234.16928894 120.19473083 -234.00082458 119.25178162 -233.82725525 118.28025818 C-231.74029506 107.92075512 -226.18834013 98.87036683 -217.7752533 92.38768005 C-210.45639817 88.25540511 -203.91681176 86.26034934 -195.5173645 86.26742554 C-194.25678223 86.26605087 -192.99619995 86.26467621 -191.69741821 86.26325989 C-190.30824256 86.26679856 -188.91906715 86.27043336 -187.52989197 86.27415466 C-186.06119285 86.27443686 -184.59249359 86.27427817 -183.12379456 86.27371216 C-179.14280025 86.27342545 -175.16183613 86.27930185 -171.18084884 86.28628612 C-167.0181708 86.29254059 -162.85549207 86.29312511 -158.69281006 86.29431152 C-150.81291718 86.29741866 -142.93303819 86.30562374 -135.05315143 86.31566101 C-126.08101946 86.32684131 -117.10888683 86.33233744 -108.13674963 86.33735645 C-89.68290964 86.34780685 -71.22908259 86.36539435 -52.7752533 86.38768005 C-52.98674011 85.10820496 -53.19822693 83.82872986 -53.41612244 82.51048279 C-53.69360082 80.80161485 -53.97085105 79.09270986 -54.24790955 77.3837738 C-54.38732971 76.54407043 -54.52674988 75.70436707 -54.6703949 74.83921814 C-57.69659302 56.04948572 -57.69659302 56.04948572 -54.22447205 51.23924255 C-51.08881335 48.86874459 -47.70827892 47.31470791 -44.1502533 45.70018005 C-36.92921955 42.25634013 -31.32251185 38.2224165 -25.7752533 32.38768005 C-25.21708923 31.8256488 -24.65892517 31.26361755 -24.08384705 30.68455505 C-17.46936005 23.56923223 -12.84772289 14.60508884 -9.79478455 5.4462738 C-7.67425546 1.16459246 -4.58824163 0.01342448 0 0 Z M4.2247467 17.38768005 C1.2547467 22.99768005 -1.7152533 28.60768005 -4.7752533 34.38768005 C-13.55130374 46.2538891 -24.39453791 57.59410826 -38.7752533 62.38768005 C-34.69182125 107.79300656 -17.71497264 153.69472006 17.2247467 184.38768005 C25.27688976 190.92875256 34.09924028 196.4781304 43.2247467 201.38768005 C43.91439514 201.76021912 44.60404358 202.13275818 45.31459045 202.5165863 C49.40548603 204.51280012 51.86349635 204.44003458 56.2247467 203.38768005 C58.70707475 202.27049313 61.03689693 201.13214509 63.4122467 199.82518005 C64.07079651 199.46657898 64.72934631 199.10797791 65.40785217 198.73851013 C71.38322322 195.41668035 76.87445253 191.64809949 82.2247467 187.38768005 C82.73747131 186.9817865 83.25019592 186.57589294 83.77845764 186.15769958 C97.38811291 175.29858426 107.87191373 163.03996305 117.2247467 148.38768005 C117.59728577 147.80792419 117.96982483 147.22816833 118.35365295 146.63084412 C130.55194401 127.35439339 137.63152833 104.52589326 141.5997467 82.20018005 C141.85159729 80.78418518 141.85159729 80.78418518 142.10853577 79.33958435 C143.0517479 73.61359406 143.37883164 68.18957035 143.2247467 62.38768005 C142.41392639 61.98678162 141.60310608 61.58588318 140.76771545 61.1728363 C121.32107234 51.1891697 109.89949926 36.73718517 100.2247467 17.38768005 C68.5447467 17.38768005 36.8647467 17.38768005 4.2247467 17.38768005 Z M-212.7752533 111.38768005 C-216.2841925 117.52483435 -217.72834636 123.92189392 -218.8624115 130.82933044 C-219.0370694 131.83216568 -219.21172729 132.83500092 -219.39167786 133.8682251 C-219.76704862 136.02966435 -220.13731524 138.19199513 -220.50293922 140.35510445 C-221.0842775 143.78395491 -221.68288325 147.20937948 -222.28652954 150.6343689 C-223.99966698 160.36685906 -225.68935013 170.10323777 -227.34922791 179.84495544 C-228.36825661 185.81821694 -229.41361354 191.78637967 -230.47540855 197.7521801 C-230.87335377 200.01853849 -231.26124652 202.28668674 -231.63868141 204.55655098 C-232.16772863 207.73438563 -232.73006616 210.90468861 -233.2999115 214.07542419 C-233.44612442 215.00499939 -233.59233734 215.93457458 -233.74298096 216.89231873 C-235.02269886 223.71699542 -237.83445735 227.59400737 -242.7752533 232.38768005 C-243.55771423 233.19334412 -244.34017517 233.99900818 -245.14634705 234.8290863 C-245.82826111 235.52904724 -246.51017517 236.22900818 -247.2127533 236.95018005 C-273.73162417 266.54632605 -264.7752533 313.35212707 -264.7752533 348.38768005 C-126.1752533 348.38768005 12.4247467 348.38768005 155.2247467 348.38768005 C159.59580762 285.76809277 159.59580762 285.76809277 133.8731842 233.1415863 C132.99919983 232.23279724 132.12521545 231.32400818 131.2247467 230.38768005 C129.9723822 229.12335144 129.9723822 229.12335144 128.69471741 227.83348083 C125.4046419 223.83587248 124.85108581 219.50433673 124.05677795 214.5009613 C123.80815254 213.09272346 123.80815254 213.09272346 123.55450439 211.65603638 C123.03074819 208.67353707 122.53268503 205.68750213 122.0372467 202.70018005 C121.52695111 199.70306476 121.01123586 196.70704664 120.487854 193.71218872 C120.1642779 191.85282901 119.8489637 189.99200841 119.54281616 188.12969971 C119.32700142 186.86775032 119.32700142 186.86775032 119.10682678 185.58030701 C118.98422989 184.84117569 118.861633 184.10204437 118.73532104 183.34051514 C118.25935083 181.08620981 118.25935083 181.08620981 116.2247467 178.38768005 C111.11940539 181.97156204 106.08401757 185.70854257 103.2247467 191.38768005 C102.39876211 197.90015434 104.29435424 204.43370492 105.70326233 210.76268005 C107.27940314 218.69651246 107.80785733 227.72938597 103.4200592 234.81736755 C99.03505715 240.57805653 93.47658234 245.00281211 86.2247467 246.38768005 C84.6038985 246.47870643 82.9797886 246.51848401 81.35639 246.52190113 C80.37227524 246.52635897 79.38816048 246.53081682 78.37422407 246.53540975 C77.29544921 246.53522539 76.21667435 246.53504102 75.10520935 246.53485107 C73.95728554 246.53852776 72.80936174 246.54220445 71.62665236 246.54599255 C68.43974561 246.55510999 65.25286913 246.55972703 62.06595159 246.56238186 C58.62884425 246.5662892 55.19175177 246.57586725 51.75465393 246.58459473 C43.45364656 246.60434719 35.15263798 246.61442388 26.85161299 246.62332252 C22.94084019 246.62770748 19.03006875 246.63307376 15.11929703 246.63831139 C2.11608092 246.65532257 -10.88713435 246.6698162 -23.89035988 246.67706013 C-27.26393764 246.67896997 -30.6375154 246.68089031 -34.01109314 246.68284607 C-35.26879552 246.68357168 -35.26879552 246.68357168 -36.55190603 246.68431195 C-50.13111037 246.69261026 -63.71022657 246.71794429 -77.28939243 246.75042675 C-91.23618217 246.78351614 -105.18292714 246.80151059 -119.12975633 246.80470437 C-126.95821434 246.80686774 -134.78654382 246.81559106 -142.61496353 246.84116554 C-149.28274295 246.86289827 -155.95036261 246.87091037 -162.61817344 246.86119876 C-166.01796238 246.85666142 -169.41742186 246.85850665 -172.81716537 246.87796021 C-176.50965871 246.89565568 -180.20132005 246.88858317 -183.89381409 246.87542725 C-184.95920461 246.88639649 -186.02459514 246.89736574 -187.12227023 246.90866739 C-195.26069124 246.83881579 -202.27116799 245.28235922 -208.6502533 240.01268005 C-216.13724239 230.76404646 -216.6354894 222.72701959 -215.57965088 211.26408005 C-214.96473617 205.96444915 -214.12859382 200.69877742 -213.2908783 195.4306488 C-213.03077038 193.74978472 -212.77132338 192.06881824 -212.51249695 190.38775635 C-211.97175901 186.89311584 -211.42288877 183.39988031 -210.86802673 179.90745544 C-210.16175298 175.45752257 -209.47663418 171.00463129 -208.79759598 166.55047131 C-208.26742759 163.08906087 -207.72585498 159.62950691 -207.18094635 156.17038918 C-206.92389591 154.52967838 -206.67033644 152.88841628 -206.4205246 151.24658775 C-204.35416574 137.73200369 -202.08336047 125.81868453 -190.89634705 116.88768005 C-181.94707607 110.81302339 -172.44940647 109.94225408 -161.88999939 109.95530701 C-160.64008209 109.94511536 -159.39016479 109.93492371 -158.10237122 109.92442322 C-154.7062515 109.89956676 -151.31056291 109.88759736 -147.91439009 109.88156915 C-144.35359143 109.87213094 -140.79291519 109.84592358 -137.23219299 109.82156372 C-130.50351675 109.7780438 -123.77486447 109.74940809 -117.04609072 109.72624034 C-109.37967005 109.69911044 -101.71337343 109.65520405 -94.04704165 109.60995162 C-78.28984282 109.51731339 -62.53262057 109.44553783 -46.7752533 109.38768005 C-47.7652533 106.41768005 -47.7652533 106.41768005 -48.7752533 103.38768005 C-68.34228875 103.31756733 -87.90929868 103.26468077 -107.47643375 103.23224354 C-116.56200423 103.21678136 -125.64749662 103.19570426 -134.73301697 103.16136169 C-142.65289772 103.13143946 -150.5727219 103.11210033 -158.4926576 103.10541457 C-162.6853625 103.1015071 -166.87790557 103.09233754 -171.07055855 103.07048988 C-175.01939298 103.05008007 -178.9679994 103.0438553 -182.91688156 103.04835701 C-184.36364291 103.04753381 -185.81041213 103.04159486 -187.25712776 103.03006363 C-197.25062968 102.95433731 -205.79204863 103.2456394 -212.7752533 111.38768005 Z M-184.1502533 133.76268005 C-184.61173767 134.30666443 -185.07322205 134.8506488 -185.5486908 135.41111755 C-188.40819591 140.01910988 -189.19731199 145.25106071 -190.0120697 150.53538513 C-190.11965103 151.22406174 -190.22723236 151.91273834 -190.33807373 152.62228394 C-190.68969938 154.88313251 -191.03357871 157.14507515 -191.3768158 159.4072113 C-191.62031299 160.99137408 -191.86408166 162.57549515 -192.10810852 164.15957642 C-192.61755006 167.47507235 -193.12303021 170.79114273 -193.62583923 174.10765076 C-194.26769763 178.33855637 -194.92038123 182.56770842 -195.57621193 186.79646778 C-196.08201139 190.06701803 -196.58146883 193.33851368 -197.07912827 196.61031151 C-197.31707748 198.16899217 -197.55707293 199.72736199 -197.79922867 201.28539467 C-200.73518848 214.76243971 -200.73518848 214.76243971 -197.9002533 227.38768005 C-194.86003285 230.249064 -193.26719984 230.51325481 -189.20149517 230.52190113 C-187.74757131 230.5285879 -187.74757131 230.5285879 -186.26427525 230.53540975 C-185.19182791 230.53522539 -184.11938056 230.53504102 -183.01443481 230.53485107 C-181.88102624 230.53852776 -180.74761766 230.54220445 -179.57986337 230.54599255 C-175.75591008 230.55706607 -171.93198392 230.56087942 -168.10801697 230.56468201 C-165.37695074 230.57040955 -162.64588861 230.57757722 -159.91482544 230.58459473 C-151.70051488 230.60436974 -143.48620306 230.61442642 -135.27187464 230.62332252 C-131.40578011 230.62770351 -127.53968696 230.63307078 -123.67359352 230.63831139 C-110.82571668 230.6553243 -97.97784071 230.66981935 -85.12995434 230.67706013 C-81.79484239 230.67897009 -78.45973045 230.68089041 -75.12461853 230.68284607 C-74.29567018 230.68332981 -73.46672183 230.68381355 -72.61265383 230.68431195 C-59.17867423 230.69261554 -45.74478358 230.71795769 -32.31084283 230.75042675 C-18.5257323 230.78347358 -4.740667 230.80150671 9.04448336 230.80470437 C16.78729846 230.80687162 24.52998384 230.81565159 32.27276039 230.84116554 C38.8657062 230.86284012 45.45849078 230.87093903 52.05146817 230.86119876 C55.41627035 230.85664451 58.78046907 230.86077252 62.1452713 230.87796021 C65.79145746 230.89554707 69.43679188 230.88863728 73.08297729 230.87542725 C74.68161006 230.89188112 74.68161006 230.89188112 76.31253844 230.90866739 C82.13224866 230.86202769 82.13224866 230.86202769 87.35860729 228.48219585 C90.42219853 225.0436852 90.42996093 222.62548701 90.39271545 218.05174255 C90.10095115 213.42422491 89.1734599 208.91947968 88.2247467 204.38768005 C83.47755006 206.99989408 78.76413798 209.65620213 74.09120178 212.39964294 C56.54056573 222.6202935 56.54056573 222.6202935 46.2247467 220.38768005 C42.9956637 219.26631441 39.97044329 217.84657548 36.9122467 216.32518005 C36.08410461 215.92178406 35.25596252 215.51838806 34.40272522 215.10276794 C23.73297863 209.79647897 14.32394477 203.07014905 5.2247467 195.38768005 C4.39072327 194.68900818 3.55669983 193.9903363 2.69740295 193.27049255 C-3.5597851 187.8520955 -8.76755869 181.96725821 -13.7752533 175.38768005 C-14.17212341 174.87108826 -14.56899353 174.35449646 -14.97789001 173.82225037 C-20.1523492 167.03654546 -24.76163686 160.00369773 -28.9627533 152.57518005 C-29.34230164 151.91381042 -29.72184998 151.2524408 -30.11289978 150.57102966 C-32.95854711 145.39707016 -35.20895236 140.02955044 -37.432724 134.56858826 C-37.75522377 133.78080238 -38.07772354 132.99301651 -38.40999603 132.18135834 C-39.20004673 130.25079915 -39.98787438 128.31933047 -40.7752533 126.38768005 C-57.84771115 126.29413365 -74.92008873 126.2236505 -91.99274445 126.18043137 C-99.92033468 126.15982831 -107.84776544 126.13175111 -115.7752533 126.08592224 C-122.68690173 126.04598508 -129.59843463 126.02023084 -136.51019526 126.01132607 C-140.16812605 126.00612289 -143.8257264 125.99394126 -147.48355103 125.96475983 C-151.57246909 125.93240545 -155.66081693 125.93172503 -159.74986267 125.93357849 C-160.95539795 125.91919739 -162.16093323 125.90481628 -163.40299988 125.88999939 C-171.58871929 125.93012763 -178.66183636 127.00526499 -184.1502533 133.76268005 Z M-281.7752533 184.38768005 C-284.73911926 188.833479 -284.1824491 193.03015586 -284.2127533 198.26268005 C-284.24562439 199.25654724 -284.27849548 200.25041443 -284.31236267 201.2743988 C-284.31945251 202.23732849 -284.32654236 203.20025818 -284.33384705 204.19236755 C-284.34730164 205.06876892 -284.36075623 205.94517029 -284.37461853 206.84812927 C-283.49014896 210.5956863 -281.79776186 212.07144893 -278.7752533 214.38768005 C-275.59853104 215.07056832 -275.59853104 215.07056832 -272.16197205 214.8759613 C-270.29122009 214.85179138 -270.29122009 214.85179138 -268.38267517 214.82713318 C-266.44231384 214.76429138 -266.44231384 214.76429138 -264.4627533 214.70018005 C-262.49338806 214.66634216 -262.49338806 214.66634216 -260.48423767 214.63182068 C-257.246752 214.5729573 -254.0115833 214.49076809 -250.7752533 214.38768005 C-249.03669873 207.03953164 -247.36318107 199.70616017 -246.0877533 192.26268005 C-245.95820251 191.5356488 -245.82865173 190.80861755 -245.69517517 190.05955505 C-245.18392632 187.12731297 -244.7752533 184.37030326 -244.7752533 181.38768005 C-249.24095778 181.31329615 -253.70633014 181.25896835 -258.17247009 181.22288513 C-259.69043768 181.20783652 -261.20836206 181.18739267 -262.72618103 181.16136169 C-264.91322007 181.12480352 -267.09968226 181.10791483 -269.28697205 181.0947113 C-270.60141296 181.07900085 -271.91585388 181.06329041 -273.27012634 181.04710388 C-277.00895863 181.41038807 -278.82898877 182.1077015 -281.7752533 184.38768005 Z M135.2247467 181.38768005 C136.31050973 189.15639419 137.41274592 196.91429469 138.7872467 204.63768005 C138.9129303 205.36857849 139.03861389 206.09947693 139.16810608 206.8525238 C139.82199746 210.73497032 139.82199746 210.73497032 141.2247467 214.38768005 C145.78691135 214.5330004 150.34848032 214.62176482 154.9122467 214.70018005 C156.20582092 214.74207458 157.49939514 214.78396912 158.83216858 214.82713318 C160.07933655 214.84324646 161.32650452 214.85935974 162.61146545 214.8759613 C163.75832825 214.90214539 164.90519104 214.92832947 166.08680725 214.95530701 C170.2476584 214.2026439 171.68853324 212.71580491 174.2247467 209.38768005 C174.9626644 206.88785897 174.9626644 206.88785897 174.85365295 204.26268005 C174.85558655 203.3087738 174.85752014 202.35486755 174.85951233 201.37205505 C174.82374084 199.89478943 174.82374084 199.89478943 174.7872467 198.38768005 C174.80368225 196.91041443 174.80368225 196.91041443 174.82044983 195.40330505 C174.77532513 190.95100123 174.67451122 188.14838114 172.37709045 184.26268005 C168.54765972 180.92669684 164.74270376 181.25374712 159.93177795 181.2900238 C159.22574936 181.29143875 158.51972076 181.2928537 157.79229736 181.29431152 C155.54057045 181.29990241 153.28894349 181.31245318 151.0372467 181.32518005 C149.50925335 181.33019623 147.98125844 181.33475894 146.45326233 181.33885193 C142.71038536 181.34986885 138.96758297 181.36712718 135.2247467 181.38768005 Z M-264.7752533 365.38768005 C-264.7752533 372.64768005 -264.7752533 379.90768005 -264.7752533 387.38768005 C-126.1752533 387.38768005 12.4247467 387.38768005 155.2247467 387.38768005 C155.2247467 380.12768005 155.2247467 372.86768005 155.2247467 365.38768005 C16.6247467 365.38768005 -121.9752533 365.38768005 -264.7752533 365.38768005 Z M-232.7752533 404.38768005 C-234.62387118 424.17590106 -234.62387118 424.17590106 -227.02915955 439.41111755 C-226.19191345 440.08014099 -226.19191345 440.08014099 -225.3377533 440.76268005 C-224.78216736 441.22416443 -224.22658142 441.6856488 -223.65415955 442.16111755 C-217.47337446 446.19597518 -211.17477137 445.75999614 -204.02012634 445.75828552 C-201.97866043 445.76264608 -199.93938249 445.79896871 -197.89830017 445.8368988 C-189.29387616 445.86239339 -183.44070871 445.41366185 -176.7518158 439.6415863 C-176.30580017 439.08342224 -175.85978455 438.52525818 -175.4002533 437.95018005 C-174.93876892 437.39459412 -174.47728455 436.83900818 -174.0018158 436.2665863 C-167.44930847 426.22914674 -170.7752533 417.80113896 -170.7752533 404.38768005 C-191.2352533 404.38768005 -211.6952533 404.38768005 -232.7752533 404.38768005 Z M61.2247467 404.38768005 C59.37612882 424.17590106 59.37612882 424.17590106 66.97084045 439.41111755 C67.80808655 440.08014099 67.80808655 440.08014099 68.6622467 440.76268005 C69.21783264 441.22416443 69.77341858 441.6856488 70.34584045 442.16111755 C76.52662554 446.19597518 82.82522863 445.75999614 89.97987366 445.75828552 C92.02133957 445.76264608 94.06061751 445.79896871 96.10169983 445.8368988 C104.70612384 445.86239339 110.55929129 445.41366185 117.2481842 439.6415863 C117.69419983 439.08342224 118.14021545 438.52525818 118.5997467 437.95018005 C119.06123108 437.39459412 119.52271545 436.83900818 119.9981842 436.2665863 C126.55069153 426.22914674 123.2247467 417.80113896 123.2247467 404.38768005 C102.7647467 404.38768005 82.3047467 404.38768005 61.2247467 404.38768005 Z " fill="#221E1F" transform="translate(310.77525329589844,24.612319946289063)"/>
<path d="M0 0 C0.72407043 -0.00671722 1.44814087 -0.01343445 2.19415283 -0.02035522 C4.58336278 -0.03932486 6.97229174 -0.04325867 9.36157227 -0.04541016 C11.02539688 -0.05183817 12.68922036 -0.05856654 14.3530426 -0.06558228 C17.83906678 -0.07755197 21.32499188 -0.08126335 24.81103516 -0.08007812 C29.27452332 -0.0798748 33.73737572 -0.10719137 38.20071316 -0.14162254 C41.63657034 -0.1638752 45.07227401 -0.1679162 48.50819588 -0.16685867 C50.15361792 -0.16921654 51.79904408 -0.1780506 53.44439507 -0.19352341 C55.74723574 -0.21315383 58.04869893 -0.2073585 60.3515625 -0.1953125 C61.66076157 -0.19816254 62.96996063 -0.20101257 64.3188324 -0.20394897 C68.328994 0.37557617 69.97347511 1.36685484 72.74047852 4.29052734 C74.29271754 8.18222433 73.90248462 12.45729457 73.90844727 16.59912109 C73.91343987 17.80472435 73.91343987 17.80472435 73.91853333 19.03468323 C73.92358741 20.73169382 73.92594212 22.42871431 73.92578125 24.12573242 C73.9279678 26.71533642 73.94613952 29.30451427 73.96508789 31.89404297 C73.96802216 33.54573423 73.97000673 35.1974275 73.97094727 36.84912109 C73.97813278 37.62009628 73.9853183 38.39107147 73.99272156 39.18540955 C73.97141084 44.22440066 73.81168897 48.22832836 70.123703 51.90026855 C66.90266111 53.77926981 63.99900412 53.71823501 60.37329102 53.69458008 C59.27014557 53.70487495 59.27014557 53.70487495 58.14471436 53.71537781 C55.71810504 53.73365247 53.29214176 53.72980798 50.86547852 53.72412109 C49.17683705 53.72868223 47.48819745 53.7339876 45.79956055 53.74000549 C42.26221164 53.7489376 38.7250885 53.74651198 35.18774414 53.73657227 C30.65462393 53.72507566 26.12228189 53.74530365 21.58926392 53.7744894 C18.10281425 53.79283369 14.61655173 53.79256264 11.13006592 53.78685188 C9.45870878 53.78669849 7.78733909 53.79275805 6.11602783 53.80514336 C3.77941002 53.82002074 1.44423853 53.80940242 -0.89233398 53.79223633 C-1.58232483 53.8019043 -2.27231567 53.81157227 -2.98321533 53.8215332 C-6.34145639 53.76986592 -7.99389328 53.50170035 -10.6574707 51.38417053 C-13.857358 47.20239158 -13.42102138 43.34739538 -13.42749023 38.26708984 C-13.43248283 36.92050797 -13.43248283 36.92050797 -13.43757629 35.54672241 C-13.44264444 33.64524855 -13.44498465 31.74376577 -13.44482422 29.84228516 C-13.44700742 26.93425801 -13.46515519 24.02661216 -13.48413086 21.11865234 C-13.48706546 19.27229948 -13.48904981 17.4259448 -13.48999023 15.57958984 C-13.49717575 14.70968414 -13.50436127 13.83977844 -13.51176453 12.94351196 C-13.50714958 11.72237198 -13.50714958 11.72237198 -13.50244141 10.4765625 C-13.50457893 9.40639389 -13.50457893 9.40639389 -13.50675964 8.31460571 C-13.20738809 5.863724 -12.62515482 4.35130475 -11.25952148 2.29052734 C-7.78779566 -0.26836049 -4.19306342 0.02443147 0 0 Z M3.74047852 17.29052734 C3.74047852 23.56052734 3.74047852 29.83052734 3.74047852 36.29052734 C21.23047852 36.29052734 38.72047852 36.29052734 56.74047852 36.29052734 C56.74047852 30.02052734 56.74047852 23.75052734 56.74047852 17.29052734 C39.25047852 17.29052734 21.76047852 17.29052734 3.74047852 17.29052734 Z " fill="#221E1F" transform="translate(352.259521484375,300.70947265625)"/>
<path d="M0 0 C0.73397003 -0.0087616 1.46794006 -0.01752319 2.22415161 -0.02655029 C4.64092814 -0.04848742 7.05586241 -0.03401381 9.47265625 -0.01708984 C11.15747426 -0.02045966 12.8422899 -0.02531367 14.52709961 -0.03158569 C18.05443517 -0.03894924 21.58113671 -0.0282688 25.10839844 -0.00488281 C29.62479619 0.02360539 34.13970837 0.00719854 38.65605164 -0.02274513 C42.13402454 -0.04083254 45.61164652 -0.03505363 49.08963013 -0.02210617 C50.75456926 -0.01877611 52.41954049 -0.02284521 54.08444214 -0.03450394 C56.41392108 -0.04723743 58.74101108 -0.02780549 61.0703125 0 C61.75513702 -0.01012115 62.43996155 -0.02024231 63.14553833 -0.03067017 C66.86680762 0.0514214 68.48464108 0.60790154 71.46127319 2.91018677 C73.55576949 5.67417478 74.16392273 6.70621864 74.18212891 10.08251953 C74.19788971 10.92689575 74.21365051 11.77127197 74.22988892 12.64123535 C74.21976776 13.54031616 74.20964661 14.43939697 74.19921875 15.36572266 C74.20400238 16.30121948 74.20878601 17.23671631 74.2137146 18.20056152 C74.21710985 20.17408942 74.20793364 22.14767384 74.18701172 24.12109375 C74.16024024 27.13750921 74.18677161 30.15020383 74.21875 33.16650391 C74.21544583 35.08708502 74.20903946 37.00766381 74.19921875 38.92822266 C74.21440048 40.27684387 74.21440048 40.27684387 74.22988892 41.65270996 C74.21412811 42.49708618 74.19836731 43.3414624 74.18212891 44.21142578 C74.17616196 45.31798523 74.17616196 45.31798523 74.17007446 46.44689941 C73.16041962 49.94548327 71.38406494 51.44347551 68.53515625 53.64697266 C65.83508749 54.14346324 63.7624969 54.33373363 61.0703125 54.29394531 C59.96935745 54.30708771 59.96935745 54.30708771 58.84616089 54.32049561 C56.42938436 54.34243273 54.01445009 54.32795912 51.59765625 54.31103516 C49.91283824 54.31440498 48.2280226 54.31925898 46.54321289 54.32553101 C43.01587733 54.33289456 39.48917579 54.32221412 35.96191406 54.29882812 C31.44551631 54.27033992 26.93060413 54.28674677 22.41426086 54.31669044 C18.93628796 54.33477785 15.45866598 54.32899894 11.98068237 54.31605148 C10.31574324 54.31272142 8.65077201 54.31679052 6.98587036 54.32844925 C4.65639142 54.34118275 2.32930142 54.32175081 0 54.29394531 C-0.68482452 54.30406647 -1.36964905 54.31418762 -2.07522583 54.32461548 C-5.79649512 54.24252391 -7.41432858 53.68604377 -10.39096069 51.38375854 C-12.48545699 48.61977053 -13.09361023 47.58772667 -13.11181641 44.21142578 C-13.12757721 43.36704956 -13.14333801 42.52267334 -13.15957642 41.65270996 C-13.14945526 40.75362915 -13.13933411 39.85454834 -13.12890625 38.92822266 C-13.1360817 37.52497742 -13.1360817 37.52497742 -13.1434021 36.09338379 C-13.14679735 34.11985589 -13.13762114 32.14627147 -13.11669922 30.17285156 C-13.08992774 27.1564361 -13.11645911 24.14374149 -13.1484375 21.12744141 C-13.14513333 19.2068603 -13.13872696 17.2862815 -13.12890625 15.36572266 C-13.1390274 14.46664185 -13.14914856 13.56756104 -13.15957642 12.64123535 C-13.14381561 11.79685913 -13.12805481 10.95248291 -13.11181641 10.08251953 C-13.10783844 9.34481323 -13.10386047 8.60710693 -13.09976196 7.8470459 C-11.18992423 1.2292126 -6.18298871 -0.09137959 0 0 Z M4.53515625 17.64697266 C4.53515625 23.91697266 4.53515625 30.18697266 4.53515625 36.64697266 C21.69515625 36.64697266 38.85515625 36.64697266 56.53515625 36.64697266 C56.53515625 30.37697266 56.53515625 24.10697266 56.53515625 17.64697266 C39.37515625 17.64697266 22.21515625 17.64697266 4.53515625 17.64697266 Z " fill="#221E1F" transform="translate(94.46484375,300.35302734375)"/>
<path d="M0 0 C2.875 1.4375 2.875 1.4375 5 4 C6.21079516 9.00461998 5.91110052 11.43569748 3.31640625 15.890625 C1.16508799 18.89448928 -1.05392078 21.82626199 -3.30908203 24.75195312 C-6.65260825 29.19711475 -9.77626716 33.79941369 -12.9375 38.375 C-14.33192727 40.38288472 -15.72645714 42.39069818 -17.12109375 44.3984375 C-20.25831877 48.92484244 -23.38418493 53.45883987 -26.5 58 C-27.81505986 59.91426665 -29.13066188 61.82815816 -30.44677734 63.74169922 C-31.60648917 65.42785678 -32.76556597 67.11445114 -33.92431641 68.80126953 C-36.04951931 71.89125809 -38.1805369 74.97717271 -40.3125 78.0625 C-40.9828125 79.03896484 -41.653125 80.01542969 -42.34375 81.02148438 C-52.41898524 95.57125023 -52.41898524 95.57125023 -57.6875 97 C-63.44447504 96.44392855 -67.38078381 92.08724439 -71.48193359 88.36474609 C-74.09937039 86.01166284 -76.80652441 83.76508585 -79.5 81.5 C-80.58860235 80.57429011 -81.67714429 79.64850917 -82.765625 78.72265625 C-86.76881008 75.33395284 -90.85588693 72.05158169 -94.953125 68.77734375 C-97.74658815 66.35172212 -97.95286371 65.41637054 -98.375 61.6875 C-98 58 -98 58 -95.9375 55.0625 C-92.2066991 52.4430015 -90.494338 52.46958287 -86 53 C-83.61920115 54.58423804 -81.79595418 56.00577561 -79.75 57.9375 C-78.62321114 58.94622398 -77.49559202 59.9540212 -76.3671875 60.9609375 C-75.52752441 61.72422363 -75.52752441 61.72422363 -74.67089844 62.50292969 C-72.13720618 64.77303502 -69.51299932 66.91431488 -66.875 69.0625 C-66.00617188 69.77535156 -65.13734375 70.48820312 -64.2421875 71.22265625 C-61.92585448 73.10877391 -61.92585448 73.10877391 -59 75 C-58.77570313 74.32710938 -58.55140625 73.65421875 -58.3203125 72.9609375 C-56.61786288 69.14301793 -54.32405959 65.99820286 -51.875 62.625 C-50.78948552 61.10870185 -49.70490056 59.59173796 -48.62109375 58.07421875 C-48.03827637 57.26001465 -47.45545898 56.44581055 -46.85498047 55.60693359 C-43.51243943 50.90942724 -40.2266205 46.1724907 -36.9375 41.4375 C-36.25606934 40.45765137 -35.57463867 39.47780273 -34.87255859 38.46826172 C-31.35597141 33.40751855 -27.85297088 28.33794577 -24.37158203 23.25292969 C-20.80233735 18.0407397 -17.22160726 12.837106 -13.5625 7.6875 C-12.66724609 6.42486328 -12.66724609 6.42486328 -11.75390625 5.13671875 C-8.23654999 0.85165444 -5.62841207 -0.80405887 0 0 Z " fill="#221E1F" transform="translate(415,80)"/>
<path d="M0 0 C1.39847168 -0.00845947 1.39847168 -0.00845947 2.82519531 -0.01708984 C3.84605728 -0.01304138 4.86691925 -0.00899292 5.91871643 -0.00482178 C6.99537567 -0.00832642 8.07203491 -0.01183105 9.18132019 -0.01544189 C12.74953104 -0.02426291 16.31754449 -0.01840824 19.88575745 -0.01165771 C22.36053506 -0.01300435 24.83531241 -0.01494488 27.31008911 -0.01745605 C32.50110895 -0.0204079 37.69206004 -0.01610803 42.8830719 -0.0067749 C49.54254485 0.00461368 56.20178926 -0.00193572 62.86126614 -0.01391983 C67.973279 -0.02114181 73.08525353 -0.01884882 78.19726753 -0.01366425 C80.65290915 -0.01232838 83.10855424 -0.01397325 85.56419182 -0.01862335 C88.99496063 -0.02369338 92.42546718 -0.01597108 95.85621643 -0.00482178 C96.87505417 -0.00887024 97.89389191 -0.0129187 98.94360352 -0.01708984 C100.34630493 -0.00863037 100.34630493 -0.00863037 101.77734375 0 C102.99379656 0.00113108 102.99379656 0.00113108 104.23482418 0.002285 C106.72263277 0.28466726 108.32164917 0.9569909 110.4521637 2.25396729 C112.51682871 4.90853659 112.44901307 6.34218488 112.3271637 9.75396729 C111.31374932 13.80762478 110.86204174 14.88575234 107.4521637 17.25396729 C103.90520505 17.86161695 100.387234 17.79991161 96.79615784 17.77154541 C95.71120529 17.77855469 94.62625275 17.78556396 93.50842285 17.79278564 C89.91779574 17.81040742 86.32795524 17.79872653 82.73731995 17.78521729 C80.24394581 17.78791117 77.75057269 17.79179273 75.25720215 17.79681396 C70.02922019 17.80271486 64.80144312 17.7945085 59.57350159 17.77545166 C54.20258607 17.75609933 48.83211237 17.75608188 43.4611969 17.77545166 C36.9790926 17.79862807 30.49731219 17.80227772 24.01518059 17.78923035 C21.54361839 17.78656075 19.07204241 17.78984097 16.60049629 17.79914856 C13.14581354 17.809302 9.69216944 17.79382771 6.23756409 17.77154541 C4.70303085 17.7836908 4.70303085 17.7836908 3.13749695 17.79608154 C-1.24092835 17.74373738 -3.83683152 17.67641195 -7.65942383 15.4052124 C-10.10355497 12.6209027 -10.5478363 10.94809151 -10.5478363 7.25396729 C-8.22556185 2.1449635 -5.62048864 0.00522845 0 0 Z " fill="#221E1F" transform="translate(202.54783630371094,318.74603271484375)"/>
</svg>
